<?xml version="1.0" standalone="no"?>
<!DOCTYPE svg PUBLIC "-//W3C//DTD SVG 20010904//EN"
 "http://www.w3.org/TR/2001/REC-SVG-20010904/DTD/svg10.dtd">
<svg version="1.0" xmlns="http://www.w3.org/2000/svg"
 width="400.000000pt" height="400.000000pt" viewBox="0 0 400.000000 400.000000"
 preserveAspectRatio="xMidYMid meet">
<metadata>
Created by potrace 1.14, written by Peter Selinger 2001-2017
</metadata>
<g transform="translate(0.000000,400.000000) scale(0.100000,-0.100000)"
fill="#000000" stroke="none">
<path d="M2241 3728 c-22 -27 -23 -33 -12 -63 6 -19 15 -71 18 -117 7 -99 -10
-174 -60 -275 -19 -37 -38 -79 -41 -93 -10 -34 34 41 102 174 54 107 55 112
59 205 4 95 -12 192 -32 197 -6 2 -21 -11 -34 -28z"/>
<path d="M2408 3678 c2 -50 -3 -104 -11 -135 -8 -29 -13 -53 -11 -53 5 0 40
80 58 133 9 26 16 65 16 86 0 36 -13 50 -50 51 -3 0 -4 -37 -2 -82z"/>
<path d="M2511 3604 c-15 -90 -57 -175 -123 -249 -30 -33 -76 -91 -103 -130
l-49 -70 84 78 c47 43 100 97 117 120 18 23 39 49 46 57 44 47 75 200 50 245
-8 14 -13 3 -22 -51z"/>
<path d="M2718 3614 c-16 -15 -7 -83 17 -138 31 -70 31 -79 0 -41 -19 23 -25
26 -25 13 0 -23 -16 -23 -24 -2 -4 9 -9 14 -12 11 -10 -9 35 -100 65 -132 31
-32 85 -134 76 -143 -3 -3 -6 -3 -8 -1 -33 47 -60 79 -64 76 -2 -3 21 -54 51
-114 54 -106 90 -192 83 -200 -3 -2 -17 13 -33 34 -16 21 -39 49 -51 63 -13
14 -23 28 -23 31 0 4 -18 33 -39 65 -85 128 -103 177 -103 270 0 35 -3 64 -8
64 -5 0 -23 -26 -40 -58 -17 -33 -60 -87 -98 -123 -152 -147 -204 -203 -252
-274 -27 -41 -50 -78 -50 -83 0 -5 -10 -34 -23 -65 -22 -55 -37 -65 -37 -26 0
44 -44 131 -95 188 -47 53 -54 65 -48 91 9 47 -11 35 -39 -22 -36 -72 -45
-110 -53 -203 -4 -44 -20 -146 -36 -227 -15 -81 -31 -178 -35 -215 -3 -38 -15
-108 -26 -156 -11 -49 -18 -90 -16 -93 6 -5 50 144 77 260 11 48 28 102 37
120 9 17 25 47 35 66 25 48 24 29 -10 -123 -16 -73 -33 -154 -38 -182 -6 -27
-29 -111 -51 -185 -76 -247 -116 -523 -93 -635 l9 -40 1 56 c2 93 21 269 37
349 16 77 70 210 85 210 12 0 11 -13 -2 -47 -6 -15 -21 -80 -34 -143 -70 -344
-55 -645 43 -860 28 -62 113 -170 134 -170 26 0 35 -33 47 -160 13 -146 41
-608 41 -677 0 -24 5 -43 11 -43 7 0 9 57 4 192 -4 106 -4 190 0 186 4 -4 10
-60 12 -125 3 -65 10 -124 15 -131 7 -8 7 -12 0 -12 -6 0 -9 -12 -7 -27 2 -16
4 -40 4 -55 1 -23 6 -28 25 -28 22 0 23 3 20 43 -10 114 -24 479 -24 636 l0
176 67 0 c45 0 68 5 71 13 3 11 40 32 62 36 3 1 11 5 18 9 6 5 12 4 12 0 0 -5
-19 -19 -42 -30 -37 -19 -39 -22 -18 -22 57 -1 237 58 284 93 17 13 53 34 79
46 100 47 160 120 182 223 4 20 10 27 21 23 17 -6 13 1 -22 49 -43 59 -62 112
-79 220 -23 144 -49 233 -81 270 l-25 30 7 -30 c4 -16 9 -34 12 -39 3 -6 5
-23 5 -38 -1 -15 -2 -55 -2 -88 -1 -33 -5 -60 -10 -60 -5 0 -19 33 -31 73 -23
76 -45 118 -93 179 -47 58 -60 54 -27 -9 40 -75 38 -96 -5 -46 -52 60 -190
127 -265 127 -48 0 -56 3 -50 16 4 8 13 37 19 65 7 27 16 52 21 55 5 3 10 17
12 32 2 14 9 33 16 41 10 12 10 16 0 20 -8 3 10 26 47 60 33 31 62 52 63 46 2
-5 8 -9 13 -9 6 0 8 4 5 9 -3 5 11 37 32 72 l37 62 8 -64 c8 -70 4 -225 -6
-236 -4 -3 -7 -10 -7 -15 0 -17 21 -7 46 21 14 16 32 27 39 25 15 -6 23 13 35
88 5 34 4 57 -2 66 -8 9 -6 12 7 12 16 0 17 -9 13 -90 -3 -49 -11 -96 -17
-103 -14 -17 -4 -27 26 -27 15 0 23 6 23 18 0 10 4 22 9 27 17 19 31 116 31
218 1 118 16 114 31 -7 24 -187 23 -190 -18 -268 -5 -8 96 -30 108 -23 16 10
95 -32 116 -61 61 -87 68 -112 68 -244 0 -96 -5 -145 -23 -212 -28 -112 -30
-220 -2 -265 19 -32 60 -62 60 -44 0 5 -7 12 -16 15 -13 5 -16 17 -12 61 4 46
13 67 61 137 56 82 87 166 87 233 0 16 7 50 16 75 19 53 21 188 3 222 -6 13
-29 41 -50 63 -39 40 -39 41 -30 95 5 30 12 148 16 262 l8 208 41 24 c79 46
186 165 226 249 27 57 80 98 168 129 47 17 86 40 140 88 140 121 216 231 196
285 -6 14 -11 11 -33 -14 -31 -37 -116 -71 -174 -71 -24 0 -77 9 -119 20 -41
11 -88 19 -104 19 -16 -1 -60 11 -99 26 -124 48 -274 32 -369 -40 l-47 -36
-29 65 c-33 71 -88 167 -103 177 -5 4 -26 41 -46 84 -20 42 -39 73 -43 69z
m-85 -460 c14 -27 44 -73 66 -102 23 -28 41 -54 41 -57 0 -3 8 -18 19 -33 70
-104 97 -151 141 -254 59 -138 65 -176 13 -90 -21 35 -63 90 -94 125 -143 157
-214 264 -239 358 -7 24 -20 53 -30 64 -21 22 -17 65 10 115 13 24 13 24 30
-25 9 -28 29 -73 43 -101z m269 27 c61 -135 146 -396 133 -409 -7 -7 -55 96
-55 119 0 11 -8 49 -17 84 -12 45 -20 61 -28 55 -8 -7 -17 8 -30 48 -60 189
-61 232 -3 103z m307 65 c-2 -2 -32 -20 -66 -40 -34 -20 -69 -43 -77 -52 -29
-29 -16 -33 28 -9 58 31 153 49 211 41 25 -4 45 -10 45 -14 0 -4 -15 -13 -32
-21 -49 -19 -20 -23 56 -7 51 10 77 11 100 4 45 -15 52 -26 22 -34 -39 -9 -31
-22 17 -26 39 -3 34 -6 -85 -45 -71 -23 -147 -55 -173 -73 -50 -34 -55 -51 -8
-27 32 16 156 41 174 35 7 -2 -21 -19 -60 -36 -90 -41 -166 -96 -222 -162 -23
-28 -45 -47 -49 -43 -3 5 -14 47 -24 95 -9 49 -35 141 -57 205 -22 65 -42 125
-45 134 -4 12 7 23 42 40 41 19 72 25 193 38 8 0 12 -1 10 -3z m-654 -326 c12
-33 12 -35 -25 -61 -54 -39 -132 -149 -190 -266 -27 -57 -50 -107 -50 -112 0
-5 -15 -31 -33 -57 -18 -27 -53 -85 -77 -129 -24 -44 -56 -98 -72 -120 -26
-38 -108 -244 -108 -275 0 -9 -3 -10 -9 -5 -6 6 -3 31 9 65 13 37 19 83 20
140 0 64 5 94 19 120 35 63 169 333 205 413 29 64 54 98 135 183 57 59 110
125 123 153 l23 48 9 -31 c4 -17 14 -47 21 -66z m186 -255 c119 -124 218 -272
253 -381 29 -88 33 -124 9 -79 -21 39 -54 77 -177 205 -64 67 -111 126 -130
163 -33 67 -41 74 -55 50 -8 -15 -10 -12 -10 17 1 19 -6 55 -15 79 -9 24 -16
58 -16 75 l1 31 21 -30 c12 -16 66 -75 119 -130z m297 18 c16 -49 23 -105 26
-202 3 -73 3 -131 -1 -127 -3 3 -16 86 -29 183 -32 244 -31 259 4 146z m-451
-26 c-8 -31 -13 -58 -11 -60 3 -2 7 -50 9 -107 5 -100 14 -149 16 -79 1 71 11
164 17 171 6 6 9 -263 4 -301 -1 -8 -10 -11 -22 -8 -14 4 -20 0 -21 -11 -3
-38 -18 90 -23 190 -5 107 3 188 23 242 19 47 23 23 8 -37z m-81 -25 c-9 -17
-19 -57 -22 -89 -4 -32 -10 -60 -13 -63 -4 -3 -17 -18 -29 -34 -28 -36 -28
-36 8 73 31 96 58 156 66 148 3 -3 -2 -19 -10 -35z m-531 -966 c18 -26 20 -27
32 -10 7 10 13 21 13 25 0 8 66 79 74 79 3 0 1 -12 -4 -26 -6 -14 -10 -56 -10
-93 0 -66 13 -119 85 -356 30 -98 42 -215 27 -255 -9 -23 -10 -21 -25 31 -9
30 -28 71 -41 90 -84 117 -108 158 -128 222 -13 40 -26 74 -30 75 -5 2 -8 10
-8 18 0 7 -11 37 -24 66 -53 117 -55 125 -41 145 7 10 19 38 26 62 l13 44 12
-44 c6 -25 19 -58 29 -73z m525 -126 c16 -32 17 -50 8 -205 -9 -173 -32 -332
-49 -350 -8 -8 -5 52 6 110 4 20 4 20 -10 1 -8 -11 -15 -28 -15 -37 0 -10 -4
-20 -9 -23 -5 -4 -8 8 -5 26 3 30 2 29 -12 -10 -20 -54 -29 -49 -14 7 6 23 13
115 16 204 5 197 4 189 21 183 7 -3 13 -4 14 -3 0 1 3 23 5 50 6 50 -12 68
-19 20 -2 -16 -2 -10 0 12 2 22 4 50 4 63 1 23 2 23 21 5 11 -10 28 -34 38
-53z m-568 -107 c22 6 22 0 4 -44 -10 -25 -12 -49 -6 -89 11 -74 16 -85 70
-160 26 -36 56 -81 65 -100 20 -39 31 -165 14 -154 -6 3 -8 13 -5 21 4 8 2 11
-5 7 -6 -4 -15 0 -20 7 -6 9 -9 10 -9 2 0 -6 5 -15 10 -18 6 -3 10 -10 10 -16
0 -5 -4 -9 -10 -9 -5 0 -10 4 -10 9 0 6 -21 38 -48 73 -62 82 -81 124 -100
219 -12 63 -13 84 -3 102 9 18 10 68 2 130 -1 4 -7 6 -13 5 -8 -2 -13 11 -15
35 l-2 38 26 -31 c17 -21 32 -30 45 -27z m3 47 c3 -5 1 -10 -4 -10 -6 0 -11 5
-11 10 0 6 2 10 4 10 3 0 8 -4 11 -10z m725 -110 c0 -5 9 -10 20 -10 24 0 24
-3 5 -103 -18 -94 -22 -102 -57 -102 -26 -1 -27 1 -23 40 2 22 7 69 10 103 2
35 7 68 11 73 7 12 34 12 34 -1z m153 -100 c28 0 20 -41 -18 -98 -38 -55 -51
-65 -40 -31 5 15 4 19 -4 15 -6 -4 -11 -20 -11 -35 0 -16 -10 -37 -25 -51 -26
-24 -36 -13 -11 12 16 16 36 124 36 193 l0 49 28 -27 c15 -15 36 -27 45 -27z
m-167 -167 c-11 -11 -17 4 -9 23 7 18 8 18 11 1 2 -10 1 -21 -2 -24z m-36 12
c0 -8 -4 -15 -10 -15 -5 0 -10 7 -10 15 0 8 5 15 10 15 6 0 10 -7 10 -15z"/>
<path d="M2102 2295 c-7 -14 -12 -32 -12 -40 0 -8 -7 -15 -16 -15 -12 0 -14
-5 -9 -17 4 -10 7 -26 7 -35 0 -10 1 -18 4 -18 9 0 75 112 70 118 -8 7 -35
-29 -36 -47 0 -8 -3 -12 -6 -8 -3 3 -1 22 6 42 14 43 8 56 -8 20z"/>
<path d="M1910 1686 c-14 -27 -7 -58 12 -54 9 2 12 -7 10 -29 -2 -17 1 -34 6
-37 14 -8 25 45 13 57 -6 6 -11 19 -11 30 0 10 -4 15 -10 12 -5 -3 -10 -2 -10
4 0 5 4 11 10 13 5 2 6 9 1 16 -5 9 -11 6 -21 -12z"/>
<path d="M1996 1548 c-11 -44 -6 -80 24 -151 27 -65 95 -156 106 -144 3 3 -8
27 -25 55 -30 51 -66 157 -76 225 -7 42 -20 48 -29 15z"/>
<path d="M2461 1134 c0 -11 3 -14 6 -6 3 7 2 16 -1 19 -3 4 -6 -2 -5 -13z"/>
<path d="M2097 3558 c-21 -7 -27 -15 -22 -27 32 -83 29 -220 -9 -341 -41 -131
-40 -152 3 -59 70 151 84 207 79 320 -2 54 -8 103 -13 108 -6 5 -22 4 -38 -1z"/>
<path d="M1955 3480 c-22 -24 -17 -63 21 -150 21 -48 29 -86 32 -145 2 -44 8
-84 13 -90 13 -13 11 195 -2 274 -11 59 -34 131 -43 131 -1 0 -11 -9 -21 -20z"/>
<path d="M1835 3428 c-3 -13 -12 -51 -19 -85 -10 -52 -10 -61 1 -52 7 6 13 17
13 23 1 6 7 25 15 41 15 30 15 29 9 -20 -3 -27 -15 -76 -26 -108 -25 -73 -17
-84 16 -20 13 26 31 57 40 68 32 41 18 -51 -24 -153 -37 -93 -76 -230 -67
-238 2 -2 13 28 25 68 12 40 39 103 61 140 23 36 46 86 52 110 11 39 9 52 -22
143 -24 69 -39 101 -51 103 -11 2 -19 -5 -23 -20z"/>
<path d="M1635 3119 c-4 -6 -5 -12 -2 -15 2 -3 7 2 10 11 7 17 1 20 -8 4z"/>
<path d="M1591 2943 c-34 -152 -51 -267 -58 -400 -3 -68 -9 -123 -13 -123 -7
0 -32 79 -50 160 -7 30 -16 61 -20 69 -16 29 3 -98 26 -179 36 -127 52 -360
25 -360 -7 0 -33 115 -45 195 -3 17 -3 -17 0 -75 2 -58 11 -133 19 -168 20
-83 31 -257 17 -265 -6 -5 -14 25 -22 81 -16 116 -33 142 -26 39 10 -138 93
-567 128 -657 35 -93 88 -192 135 -252 24 -32 41 -58 38 -58 -23 0 -67 38
-110 94 -53 69 -71 82 -55 41 13 -34 -12 -34 -58 1 -45 35 -152 146 -152 158
0 6 16 -7 35 -27 47 -49 55 -47 13 4 -18 22 -38 49 -44 60 -6 11 -39 51 -74
89 -75 84 -100 116 -100 126 0 4 -26 48 -59 98 -32 50 -71 116 -86 145 -39 79
-95 214 -90 219 2 2 20 -29 40 -69 58 -116 187 -328 224 -368 38 -42 39 -43
-66 124 -35 55 -78 132 -97 170 -172 355 -182 370 -294 451 -42 31 -93 72
-112 90 -20 19 -64 49 -99 68 -35 18 -59 36 -53 40 16 10 115 -24 151 -52 18
-15 49 -36 68 -48 20 -11 60 -45 90 -75 31 -30 50 -44 44 -32 -6 11 -37 48
-70 80 -32 32 -68 78 -79 100 -11 23 -30 59 -42 80 l-23 38 37 -35 c21 -19 63
-65 94 -102 30 -37 57 -66 60 -64 3 4 -17 45 -28 56 -18 18 -128 171 -143 200
-11 19 -28 50 -39 68 -49 81 34 -1 95 -94 51 -77 216 -278 223 -271 3 3 -19
38 -49 79 -63 89 -124 210 -171 341 -18 52 -42 111 -51 132 -22 46 -85 93
-134 100 -20 3 -56 12 -81 20 -25 8 -62 15 -82 15 -47 0 -87 -37 -59 -55 5 -3
12 -1 16 5 7 11 46 4 86 -16 24 -12 169 -144 158 -144 -4 0 -59 29 -139 74
-45 25 -88 37 -95 26 -3 -5 11 -16 31 -25 35 -14 164 -138 164 -157 0 -5 -13
0 -29 11 -42 30 -49 26 -16 -9 35 -37 28 -38 -21 -5 -36 25 -110 52 -118 44
-3 -2 -7 -15 -11 -29 -4 -18 1 -35 19 -60 51 -71 59 -93 61 -166 1 -53 7 -79
22 -100 11 -16 30 -50 42 -76 32 -67 93 -132 174 -184 126 -81 152 -116 196
-269 23 -79 57 -136 123 -210 25 -27 53 -65 62 -83 45 -87 118 -185 200 -268
50 -50 125 -127 166 -171 75 -80 185 -155 306 -208 51 -23 153 -49 161 -41 2
2 -18 23 -46 47 -27 24 -66 69 -86 99 -44 64 -118 220 -147 305 -63 188 -81
467 -54 812 9 111 16 258 16 325 0 119 12 239 45 457 9 57 14 105 12 107 -2 2
-14 -40 -26 -93z m44 -1923 c3 -6 -1 -7 -9 -4 -18 7 -21 14 -7 14 6 0 13 -4
16 -10z"/>
<path d="M1667 2833 c-8 -27 -21 -164 -32 -328 -4 -49 -11 -119 -16 -155 -30
-192 -45 -463 -31 -545 6 -39 10 -1 14 165 4 118 14 253 22 300 8 47 20 155
26 240 6 85 15 196 20 245 8 88 7 115 -3 78z"/>
<path d="M757 2808 c3 -18 16 -53 28 -78 12 -25 33 -74 46 -110 24 -69 53
-117 114 -190 20 -24 47 -65 59 -90 13 -25 39 -69 59 -99 20 -30 50 -91 66
-135 62 -173 153 -358 206 -422 27 -33 35 -54 40 -97 3 -31 10 -68 15 -84 l10
-28 -20 25 c-11 14 -28 39 -37 55 -15 28 -15 29 0 16 10 -8 17 -9 17 -3 0 6
-5 14 -10 17 -24 15 -117 168 -167 274 -115 244 -143 297 -184 341 -29 32 -36
37 -24 16 10 -16 26 -45 37 -65 l20 -36 -31 35 c-17 19 -31 32 -31 28 0 -6 58
-112 81 -148 5 -8 29 -55 53 -105 85 -177 209 -382 279 -462 18 -20 37 -48 44
-62 18 -40 15 -8 -6 77 -30 119 -43 222 -44 368 -2 82 -6 133 -12 132 -6 -2
-10 -31 -10 -66 0 -34 -3 -62 -6 -62 -4 0 -14 29 -23 65 -12 50 -15 88 -10
158 6 80 4 98 -12 127 l-19 35 -5 -140 c-4 -101 -7 -132 -14 -110 -4 17 -15
50 -23 75 -8 25 -17 96 -20 158 -4 72 -9 110 -16 103 -11 -11 -12 -149 -2
-223 5 -33 4 -48 -3 -44 -17 10 -34 101 -42 224 -7 113 -7 114 -9 37 -3 -118
-20 -62 -28 93 -6 121 -7 126 -40 171 -18 25 -36 53 -39 61 -22 63 -63 126
-96 151 -39 27 -112 49 -168 49 -28 0 -29 -2 -23 -32z"/>
<path d="M2460 2275 c-7 -9 -10 -18 -7 -21 3 -3 10 4 17 15 13 25 8 27 -10 6z"/>
<path d="M2337 2114 c-15 -14 -40 -55 -57 -90 -52 -110 -34 -135 43 -61 34 33
47 56 57 96 11 45 10 55 -2 67 -13 13 -18 11 -41 -12z"/>
<path d="M2712 2120 c0 -14 2 -19 5 -12 2 6 2 18 0 25 -3 6 -5 1 -5 -13z"/>
<path d="M2411 2090 c-5 -16 -6 -30 -2 -30 5 0 11 8 15 18 3 9 9 23 12 30 3 6
1 12 -4 12 -6 0 -15 -13 -21 -30z"/>
<path d="M1382 2080 c0 -19 2 -27 5 -17 2 9 2 25 0 35 -3 9 -5 1 -5 -18z"/>
<path d="M2413 2027 c-45 -32 -51 -48 -12 -26 28 15 64 47 58 53 -2 2 -23 -10
-46 -27z"/>
<path d="M2907 1778 c15 -41 19 -121 11 -263 -1 -27 2 -50 7 -50 19 0 38 81
39 165 1 72 -3 93 -24 135 -33 64 -56 74 -33 13z"/>
<path d="M1460 1322 c0 -7 17 -45 38 -85 20 -39 37 -79 38 -87 1 -32 15 -70
25 -70 8 0 8 4 0 13 -8 10 -7 17 2 26 8 8 8 14 2 19 -6 4 -32 50 -58 102 -25
52 -47 89 -47 82z"/>
<path d="M1968 863 c6 -2 18 -2 25 0 6 3 1 5 -13 5 -14 0 -19 -2 -12 -5z"/>
</g>
</svg>
